<svg class="border shadow-md" viewBox="0 0 1126.4 563.2" xmlns="http://www.w3.org/2000/svg" preserveAspectRatio="none" style="width: 1126.4px; height: 563.2px;"><rect class="bg" id="bg" x="0" y="0" width="1126.4" height="563.2" fill="#ffffff"/><g transform="rotate(319 563.2 281.6)"><path d="M -375.47 243.20 S -197.73 227.20&#10;            0.00 243.20 177.73 8.20&#10;            375.47 243.20 496.93 175.20&#10;            750.93 243.20 928.67 97.20&#10;            1126.40 243.20 1304.13 127.20&#10;            1501.87 243.20 h 110 V 1163.2 H -375.47 Z" fill="#fdfdfd"/><path d="M -375.47 345.00 S -329.00 182.50&#10;            0.00 345.00 177.73 173.00&#10;            375.47 345.00 493.93 182.50&#10;            750.93 345.00 928.67 182.50&#10;            1126.40 345.00 1304.13 103.00&#10;            1501.87 345.00 h 110 V -600 H -375.47 Z" fill="#DADE06"/></g></svg>